<svg width="27" height="20" viewBox="0 0 27 20" fill="none" xmlns="http://www.w3.org/2000/svg">
<path d="M15.6345 1.31313H10.9449C10.5345 1.31313 10.1712 1.04763 10.0465 0.656566C9.92185 0.265504 9.55854 0 9.14809 0H8.55359C8.43357 0 8.31454 0.0216049 8.20217 0.0637812L6.48837 0.707071L4.34269 1.51747C4.17176 1.58203 4.02179 1.69218 3.90906 1.83597L2.69184 3.38847C2.64165 3.45248 2.59946 3.52238 2.56621 3.59661L1.77907 5.35354L0.65873 8.15524C0.638216 8.20654 0.62199 8.25945 0.610216 8.31343L0.0229707 11.0058C0.00770111 11.0758 0 11.1472 0 11.2189V13.9394V16.2069C0 16.5552 0.181245 16.8785 0.478434 17.0601L3.03778 18.6247C3.10538 18.666 3.17765 18.6991 3.25307 18.7234L5.02326 19.2929L6.12934 19.7081C6.58015 19.8773 7.08754 19.7012 7.3366 19.2891L7.83396 18.4662C8.12765 17.9802 7.95828 17.3475 7.46108 17.0733L6.27687 16.4201C6.21367 16.3853 6.17442 16.3188 6.17442 16.2466C6.17442 16.108 6.31317 16.0122 6.44281 16.0614L9.00269 17.032C9.07046 17.0577 9.14083 17.076 9.21254 17.0865L12.4862 17.5652C12.5341 17.5722 12.5824 17.5758 12.6309 17.5758H15.0911C15.1465 17.5758 15.2019 17.5711 15.2566 17.562L17.4561 17.1928C17.5393 17.1788 17.6204 17.1543 17.6975 17.12L20.1281 16.0372C20.2334 15.9903 20.3566 16.012 20.4396 16.0921C20.5782 16.2259 20.5454 16.4561 20.3749 16.5458L19.3869 17.0659C18.8668 17.3398 18.6939 18.001 19.0134 18.4943L19.5491 19.3216C19.8053 19.7173 20.3032 19.8803 20.7439 19.7127L23.3618 18.7173C23.4151 18.6971 23.4665 18.6723 23.5156 18.6433L26.2564 17.0219C26.5269 16.8618 26.7064 16.5839 26.7411 16.2715L26.9878 14.0497C26.9959 13.9764 26.9959 13.9024 26.9878 13.8291L26.686 11.1111L26.1779 8.3156C26.1679 8.26018 26.1531 8.20571 26.1339 8.15278L25.1163 5.35354L24.2191 3.57358C24.1894 3.51457 24.1539 3.45866 24.1131 3.40666L22.8634 1.81265C22.7622 1.68364 22.6309 1.58147 22.481 1.51515L20.3133 0.556215C20.2365 0.522241 20.1558 0.498075 20.0729 0.48429L17.7426 0.0964935C17.3847 0.0369287 17.0226 0.175924 16.7964 0.459683L16.4165 0.936375C16.2268 1.17445 15.9389 1.31313 15.6345 1.31313Z" fill="white"/>
<ellipse cx="9.00023" cy="10.9091" rx="2.72093" ry="2.62626" fill="#161616"/>
<ellipse cx="18.0002" cy="10.9091" rx="2.72093" ry="2.62626" fill="#161616"/>
</svg>
