<svg width="414" height="447" viewBox="0 0 414 447" fill="none" xmlns="http://www.w3.org/2000/svg">
<path d="M191.485 220.815C182.876 230.241 173.317 240.587 166.611 247.82C159.153 228.18 169.113 200.737 180.224 180.221C182.926 192.978 186.63 206.48 191.485 220.815Z" fill="#751F9C"/>
<path d="M243.936 148.131C254.996 157.425 264.906 174.785 257.449 201.921C250.742 201.439 241.233 200.781 232.625 200.08C237.529 180.791 241.233 163.562 243.936 148.131Z" fill="#751F9C"/>
<path opacity="0.2" d="M220.163 244.795C281.973 36.7371 231.123 19.0701 211.905 11.9683C192.686 38.5345 141.837 107.624 203.747 253.081L220.163 244.795Z" fill="url(#paint0_linear_32_65)"/>
<path opacity="0.1" d="M201.945 232.827C263.805 24.8127 212.956 7.1457 193.687 0C174.469 26.5662 123.619 95.6559 185.529 241.113L201.945 232.827Z" fill="url(#paint1_linear_32_65)"/>
<path opacity="0.15" d="M203.747 253.081C141.837 107.624 192.686 38.5345 211.905 11.9683V248.96L203.747 253.081Z" fill="url(#paint2_linear_32_65)"/>
<path opacity="0.1" d="M193.437 85.2223C193.437 97.8916 201.945 103.854 212.455 98.5492C222.965 93.2447 231.474 78.6465 231.474 65.9771C231.474 53.3077 222.965 47.3457 212.455 52.6502C201.945 57.9546 193.437 72.5529 193.437 85.2223Z" fill="white"/>
<path opacity="0.1" d="M212.055 395.644C201.745 415.503 186.38 432.6 169.214 441.28C138.184 456.974 113.009 439.263 112.959 401.737C112.959 364.212 138.134 321.031 169.164 305.336C179.373 300.163 188.933 298.629 197.191 300.207C201.545 293.982 203.647 286.091 205.499 279.165C207.651 271.186 209.452 264.391 213.957 262.681C219.112 260.709 221.414 265.706 224.667 272.633C226.569 276.71 228.821 281.532 232.124 285.96C235.678 282.672 239.431 279.954 243.385 277.981C259.951 269.608 273.765 276.841 277.018 294.114C279.27 292.623 281.522 291.264 283.824 290.08C310.4 276.666 331.921 291.878 331.921 324.143C331.921 356.364 310.4 393.364 283.874 406.779C258.099 419.799 237.029 405.814 235.828 375.522C230.973 383.413 224.517 390.033 217.36 393.627C215.608 394.504 213.807 395.162 212.055 395.644Z" fill="url(#paint3_linear_32_65)"/>
<path opacity="0.3" d="M147.242 156.636L11.7112 225.156L11.6612 287.012L135.181 224.542L147.142 227.961L147.242 156.636Z" fill="url(#paint4_linear_32_65)"/>
<path d="M51.1494 236.028V219.237L0 245.102V261.892L51.1494 236.028Z" fill="#751F9C"/>
<path opacity="0.1" d="M112.359 189.295L82.68 204.332V209.768L112.359 194.775V189.295Z" fill="white"/>
<path opacity="0.1" d="M112.358 200.167L58.7565 227.26V232.696L112.358 205.603V200.167Z" fill="white"/>
<path opacity="0.15" d="M112.359 211.039L43.0416 246.11V251.546L112.359 216.475V211.039Z" fill="white"/>
<path d="M119.665 191.268C119.665 196.353 123.119 198.764 127.373 196.616C131.627 194.468 135.08 188.594 135.08 183.509C135.08 178.423 131.627 176.012 127.373 178.16C123.119 180.308 119.665 186.183 119.665 191.268Z" fill="#C46AEC"/>
<path opacity="0.3" d="M264.105 69.265L399.586 0.789062L399.536 62.6454L276.016 125.072L264.055 140.59L264.105 69.265Z" fill="url(#paint5_linear_32_65)"/>
<path d="M414 24.9006V8.11035L362.851 33.9752V50.7654L414 24.9006Z" fill="#B18FC0"/>
<path opacity="0.15" d="M298.939 66.7223L328.617 51.7295V57.1655L298.939 72.1583V66.7223Z" fill="white"/>
<path opacity="0.15" d="M298.889 77.5946L356.094 48.6611V54.0971L298.889 83.0306V77.5946Z" fill="white"/>
<path opacity="0.15" d="M298.889 88.4664L368.206 53.3955V58.8315L298.889 93.9024V88.4664Z" fill="white"/>
<path d="M291.582 76.0599C291.582 81.1452 288.128 87.0196 283.874 89.1677C279.62 91.3158 276.167 88.9046 276.167 83.8194C276.167 78.7341 279.62 72.8597 283.874 70.7116C288.178 68.6073 291.632 70.9746 291.582 76.0599Z" fill="#C46AEC"/>
<path opacity="0.2" d="M282.123 135.286L363.051 94.3848V131.297L282.123 172.198V135.286Z" fill="url(#paint6_linear_32_65)"/>
<path opacity="0.15" d="M342.331 113.717L314.604 127.746V132.173L342.331 118.145V113.717Z" fill="white"/>
<path opacity="0.15" d="M342.281 122.617L290.43 148.832V153.304L342.281 127.088V122.617Z" fill="white"/>
<path d="M346.585 115.033C346.585 118.057 348.637 119.504 351.189 118.233C353.742 116.961 355.794 113.454 355.794 110.386C355.794 107.361 353.742 105.914 351.189 107.185C348.637 108.501 346.585 112.008 346.585 115.033Z" fill="#C444FF"/>
<path opacity="0.2" d="M41.7401 163.168L122.668 122.266V159.178L41.7401 200.124V163.168Z" fill="url(#paint7_linear_32_65)"/>
<path opacity="0.15" d="M101.948 141.643L74.2216 155.671V160.099L101.948 146.07V141.643Z" fill="white"/>
<path opacity="0.15" d="M101.948 150.542L50.0982 176.757V181.229L101.948 155.014V150.542Z" fill="white"/>
<path d="M106.203 142.958C106.203 145.983 108.255 147.429 110.807 146.158C113.36 144.887 115.412 141.38 115.412 138.311C115.412 135.286 113.36 133.839 110.807 135.111C108.255 136.382 106.203 139.933 106.203 142.958Z" fill="#B18FC0"/>
<rect x="0.0549987" y="0.657537" width="7.79388" height="7.60287" transform="matrix(0.803796 0.594905 -0.693799 0.720169 394.994 246.457)" stroke="#582365"/>
<defs>
<linearGradient id="paint0_linear_32_65" x1="139.771" y1="19.3448" x2="266.507" y2="270.02" gradientUnits="userSpaceOnUse">
<stop stop-color="white"/>
<stop offset="1" stop-color="white" stop-opacity="0"/>
</linearGradient>
<linearGradient id="paint1_linear_32_65" x1="121.557" y1="7.37993" x2="248.294" y2="258.055" gradientUnits="userSpaceOnUse">
<stop stop-color="white"/>
<stop offset="1" stop-color="white" stop-opacity="0"/>
</linearGradient>
<linearGradient id="paint2_linear_32_65" x1="168.783" y1="70.827" x2="266.258" y2="271.621" gradientUnits="userSpaceOnUse">
<stop stop-color="white" stop-opacity="0"/>
<stop offset="1" stop-color="white"/>
</linearGradient>
<linearGradient id="paint3_linear_32_65" x1="180.081" y1="299.821" x2="234.821" y2="408.093" gradientUnits="userSpaceOnUse">
<stop stop-color="white"/>
<stop offset="1" stop-color="white" stop-opacity="0"/>
</linearGradient>
<linearGradient id="paint4_linear_32_65" x1="89.0132" y1="158.639" x2="75.5264" y2="283.517" gradientUnits="userSpaceOnUse">
<stop stop-color="white"/>
<stop offset="1" stop-color="white" stop-opacity="0"/>
</linearGradient>
<linearGradient id="paint5_linear_32_65" x1="293.633" y1="44.4965" x2="356.36" y2="100.566" gradientUnits="userSpaceOnUse">
<stop stop-color="white"/>
<stop offset="1" stop-color="white" stop-opacity="0"/>
</linearGradient>
<linearGradient id="paint6_linear_32_65" x1="313.451" y1="119.428" x2="328.318" y2="148.834" gradientUnits="userSpaceOnUse">
<stop stop-color="white"/>
<stop offset="1" stop-color="white" stop-opacity="0"/>
</linearGradient>
<linearGradient id="paint7_linear_32_65" x1="73.0872" y1="147.343" x2="87.9552" y2="176.75" gradientUnits="userSpaceOnUse">
<stop stop-color="white"/>
<stop offset="1" stop-color="white" stop-opacity="0"/>
</linearGradient>
</defs>
</svg>
